<mxfile host="app.diagrams.net" modified="2021-10-23T09:12:52.758Z" agent="5.0 (Windows NT 10.0; Win64; x64) AppleWebKit/537.36 (KHTML, like Gecko) Chrome/94.0.4606.81 Safari/537.36" etag="mIvL6s57FcXO3mZ9rwIN" version="15.5.8" type="github">
  <diagram id="M6y8392TLzpfR5IYkmAL" name="Page-1">
    <mxGraphModel dx="1185" dy="635" grid="1" gridSize="10" guides="1" tooltips="1" connect="1" arrows="1" fold="1" page="1" pageScale="1" pageWidth="850" pageHeight="1100" math="0" shadow="0">
      <root>
        <mxCell id="0" />
        <mxCell id="1" parent="0" />
        <mxCell id="cc8EIHfYlOQ8iBalrAjE-4" value="Tgl" style="rounded=0;whiteSpace=wrap;html=1;" vertex="1" parent="1">
          <mxGeometry x="80" y="610" width="80" height="40" as="geometry" />
        </mxCell>
        <mxCell id="cc8EIHfYlOQ8iBalrAjE-5" value="NPM" style="rounded=0;whiteSpace=wrap;html=1;" vertex="1" parent="1">
          <mxGeometry x="370" y="500" width="80" height="40" as="geometry" />
        </mxCell>
        <mxCell id="cc8EIHfYlOQ8iBalrAjE-6" value="Nama" style="rounded=0;whiteSpace=wrap;html=1;" vertex="1" parent="1">
          <mxGeometry x="450" y="500" width="80" height="40" as="geometry" />
        </mxCell>
        <mxCell id="cc8EIHfYlOQ8iBalrAjE-10" value="20430080" style="rounded=0;whiteSpace=wrap;html=1;" vertex="1" parent="1">
          <mxGeometry x="370" y="580" width="80" height="40" as="geometry" />
        </mxCell>
        <mxCell id="cc8EIHfYlOQ8iBalrAjE-11" value="20430082" style="rounded=0;whiteSpace=wrap;html=1;" vertex="1" parent="1">
          <mxGeometry x="370" y="540" width="80" height="40" as="geometry" />
        </mxCell>
        <mxCell id="cc8EIHfYlOQ8iBalrAjE-12" value="Pras" style="rounded=0;whiteSpace=wrap;html=1;" vertex="1" parent="1">
          <mxGeometry x="450" y="540" width="80" height="40" as="geometry" />
        </mxCell>
        <mxCell id="cc8EIHfYlOQ8iBalrAjE-16" value="30/10/21" style="rounded=0;whiteSpace=wrap;html=1;" vertex="1" parent="1">
          <mxGeometry x="80" y="690" width="80" height="40" as="geometry" />
        </mxCell>
        <mxCell id="cc8EIHfYlOQ8iBalrAjE-18" value="25/10/21" style="rounded=0;whiteSpace=wrap;html=1;" vertex="1" parent="1">
          <mxGeometry x="80" y="650" width="80" height="40" as="geometry" />
        </mxCell>
        <mxCell id="cc8EIHfYlOQ8iBalrAjE-24" value="Tyo" style="rounded=0;whiteSpace=wrap;html=1;" vertex="1" parent="1">
          <mxGeometry x="450" y="580" width="80" height="40" as="geometry" />
        </mxCell>
        <mxCell id="cc8EIHfYlOQ8iBalrAjE-25" value="Kode Buku" style="rounded=0;whiteSpace=wrap;html=1;" vertex="1" parent="1">
          <mxGeometry x="350" y="870" width="80" height="40" as="geometry" />
        </mxCell>
        <mxCell id="cc8EIHfYlOQ8iBalrAjE-31" style="edgeStyle=orthogonalEdgeStyle;rounded=0;orthogonalLoop=1;jettySize=auto;html=1;exitX=0;exitY=0;exitDx=0;exitDy=0;" edge="1" parent="1" source="cc8EIHfYlOQ8iBalrAjE-26">
          <mxGeometry relative="1" as="geometry">
            <mxPoint x="470" y="760" as="targetPoint" />
          </mxGeometry>
        </mxCell>
        <mxCell id="cc8EIHfYlOQ8iBalrAjE-26" value="Nama" style="rounded=0;whiteSpace=wrap;html=1;" vertex="1" parent="1">
          <mxGeometry x="430" y="870" width="80" height="40" as="geometry" />
        </mxCell>
        <mxCell id="cc8EIHfYlOQ8iBalrAjE-27" value="A-1" style="rounded=0;whiteSpace=wrap;html=1;" vertex="1" parent="1">
          <mxGeometry x="350" y="910" width="80" height="40" as="geometry" />
        </mxCell>
        <mxCell id="cc8EIHfYlOQ8iBalrAjE-28" value="Pras" style="rounded=0;whiteSpace=wrap;html=1;" vertex="1" parent="1">
          <mxGeometry x="430" y="910" width="80" height="40" as="geometry" />
        </mxCell>
        <mxCell id="cc8EIHfYlOQ8iBalrAjE-29" value="Tyo" style="rounded=0;whiteSpace=wrap;html=1;" vertex="1" parent="1">
          <mxGeometry x="430" y="950" width="80" height="40" as="geometry" />
        </mxCell>
        <mxCell id="cc8EIHfYlOQ8iBalrAjE-30" value="A-2" style="rounded=0;whiteSpace=wrap;html=1;" vertex="1" parent="1">
          <mxGeometry x="350" y="950" width="80" height="40" as="geometry" />
        </mxCell>
        <mxCell id="cc8EIHfYlOQ8iBalrAjE-32" value="Nama Buku" style="rounded=0;whiteSpace=wrap;html=1;" vertex="1" parent="1">
          <mxGeometry x="650" y="700" width="80" height="40" as="geometry" />
        </mxCell>
        <mxCell id="cc8EIHfYlOQ8iBalrAjE-33" value="Qty" style="rounded=0;whiteSpace=wrap;html=1;" vertex="1" parent="1">
          <mxGeometry x="730" y="700" width="80" height="40" as="geometry" />
        </mxCell>
        <mxCell id="cc8EIHfYlOQ8iBalrAjE-34" value="Hidup Sehat" style="rounded=0;whiteSpace=wrap;html=1;" vertex="1" parent="1">
          <mxGeometry x="650" y="780" width="80" height="40" as="geometry" />
        </mxCell>
        <mxCell id="cc8EIHfYlOQ8iBalrAjE-35" value="2" style="rounded=0;whiteSpace=wrap;html=1;" vertex="1" parent="1">
          <mxGeometry x="730" y="780" width="80" height="40" as="geometry" />
        </mxCell>
        <mxCell id="cc8EIHfYlOQ8iBalrAjE-36" value="Hidup Hemat" style="rounded=0;whiteSpace=wrap;html=1;" vertex="1" parent="1">
          <mxGeometry x="650" y="740" width="80" height="40" as="geometry" />
        </mxCell>
        <mxCell id="cc8EIHfYlOQ8iBalrAjE-37" value="1" style="rounded=0;whiteSpace=wrap;html=1;" vertex="1" parent="1">
          <mxGeometry x="730" y="740" width="80" height="40" as="geometry" />
        </mxCell>
        <mxCell id="cc8EIHfYlOQ8iBalrAjE-39" value="No. &lt;br&gt;Pinjman" style="rounded=0;whiteSpace=wrap;html=1;" vertex="1" parent="1">
          <mxGeometry x="80" y="130" width="80" height="40" as="geometry" />
        </mxCell>
        <mxCell id="cc8EIHfYlOQ8iBalrAjE-40" value="Tgl" style="rounded=0;whiteSpace=wrap;html=1;" vertex="1" parent="1">
          <mxGeometry x="160" y="130" width="80" height="40" as="geometry" />
        </mxCell>
        <mxCell id="cc8EIHfYlOQ8iBalrAjE-41" value="NPM" style="rounded=0;whiteSpace=wrap;html=1;" vertex="1" parent="1">
          <mxGeometry x="240" y="130" width="80" height="40" as="geometry" />
        </mxCell>
        <mxCell id="cc8EIHfYlOQ8iBalrAjE-42" value="20430080" style="rounded=0;whiteSpace=wrap;html=1;" vertex="1" parent="1">
          <mxGeometry x="240" y="210" width="80" height="40" as="geometry" />
        </mxCell>
        <mxCell id="cc8EIHfYlOQ8iBalrAjE-43" value="20430082" style="rounded=0;whiteSpace=wrap;html=1;" vertex="1" parent="1">
          <mxGeometry x="240" y="170" width="80" height="40" as="geometry" />
        </mxCell>
        <mxCell id="cc8EIHfYlOQ8iBalrAjE-44" value="30/10/21" style="rounded=0;whiteSpace=wrap;html=1;" vertex="1" parent="1">
          <mxGeometry x="160" y="210" width="80" height="40" as="geometry" />
        </mxCell>
        <mxCell id="cc8EIHfYlOQ8iBalrAjE-45" value="P-2" style="rounded=0;whiteSpace=wrap;html=1;" vertex="1" parent="1">
          <mxGeometry x="80" y="210" width="80" height="40" as="geometry" />
        </mxCell>
        <mxCell id="cc8EIHfYlOQ8iBalrAjE-46" value="25/10/21" style="rounded=0;whiteSpace=wrap;html=1;" vertex="1" parent="1">
          <mxGeometry x="160" y="170" width="80" height="40" as="geometry" />
        </mxCell>
        <mxCell id="cc8EIHfYlOQ8iBalrAjE-47" value="P-1" style="rounded=0;whiteSpace=wrap;html=1;" vertex="1" parent="1">
          <mxGeometry x="80" y="170" width="80" height="40" as="geometry" />
        </mxCell>
        <mxCell id="cc8EIHfYlOQ8iBalrAjE-48" value="No. &lt;br&gt;Pinjman" style="rounded=0;whiteSpace=wrap;html=1;" vertex="1" parent="1">
          <mxGeometry x="80" y="320" width="80" height="40" as="geometry" />
        </mxCell>
        <mxCell id="cc8EIHfYlOQ8iBalrAjE-49" value="P-2" style="rounded=0;whiteSpace=wrap;html=1;" vertex="1" parent="1">
          <mxGeometry x="80" y="400" width="80" height="40" as="geometry" />
        </mxCell>
        <mxCell id="cc8EIHfYlOQ8iBalrAjE-50" value="P-1" style="rounded=0;whiteSpace=wrap;html=1;" vertex="1" parent="1">
          <mxGeometry x="80" y="360" width="80" height="40" as="geometry" />
        </mxCell>
        <mxCell id="cc8EIHfYlOQ8iBalrAjE-51" value="Nama Buku" style="rounded=0;whiteSpace=wrap;html=1;" vertex="1" parent="1">
          <mxGeometry x="640" y="320" width="80" height="40" as="geometry" />
        </mxCell>
        <mxCell id="cc8EIHfYlOQ8iBalrAjE-52" value="Qty" style="rounded=0;whiteSpace=wrap;html=1;" vertex="1" parent="1">
          <mxGeometry x="120" y="760" width="80" height="40" as="geometry" />
        </mxCell>
        <mxCell id="cc8EIHfYlOQ8iBalrAjE-53" value="Hidup Sehat" style="rounded=0;whiteSpace=wrap;html=1;" vertex="1" parent="1">
          <mxGeometry x="640" y="400" width="80" height="40" as="geometry" />
        </mxCell>
        <mxCell id="cc8EIHfYlOQ8iBalrAjE-54" value="2" style="rounded=0;whiteSpace=wrap;html=1;" vertex="1" parent="1">
          <mxGeometry x="120" y="840" width="80" height="40" as="geometry" />
        </mxCell>
        <mxCell id="cc8EIHfYlOQ8iBalrAjE-55" value="Hidup Hemat" style="rounded=0;whiteSpace=wrap;html=1;" vertex="1" parent="1">
          <mxGeometry x="640" y="360" width="80" height="40" as="geometry" />
        </mxCell>
        <mxCell id="cc8EIHfYlOQ8iBalrAjE-56" value="1" style="rounded=0;whiteSpace=wrap;html=1;" vertex="1" parent="1">
          <mxGeometry x="120" y="800" width="80" height="40" as="geometry" />
        </mxCell>
        <mxCell id="cc8EIHfYlOQ8iBalrAjE-57" value="Kode Buku" style="rounded=0;whiteSpace=wrap;html=1;" vertex="1" parent="1">
          <mxGeometry x="160" y="320" width="80" height="40" as="geometry" />
        </mxCell>
        <mxCell id="cc8EIHfYlOQ8iBalrAjE-58" value="A-2" style="rounded=0;whiteSpace=wrap;html=1;" vertex="1" parent="1">
          <mxGeometry x="160" y="400" width="80" height="40" as="geometry" />
        </mxCell>
        <mxCell id="cc8EIHfYlOQ8iBalrAjE-59" value="A-1" style="rounded=0;whiteSpace=wrap;html=1;" vertex="1" parent="1">
          <mxGeometry x="160" y="360" width="80" height="40" as="geometry" />
        </mxCell>
        <mxCell id="cc8EIHfYlOQ8iBalrAjE-60" value="Qty" style="rounded=0;whiteSpace=wrap;html=1;" vertex="1" parent="1">
          <mxGeometry x="240" y="320" width="80" height="40" as="geometry" />
        </mxCell>
        <mxCell id="cc8EIHfYlOQ8iBalrAjE-61" value="2" style="rounded=0;whiteSpace=wrap;html=1;" vertex="1" parent="1">
          <mxGeometry x="240" y="400" width="80" height="40" as="geometry" />
        </mxCell>
        <mxCell id="cc8EIHfYlOQ8iBalrAjE-62" value="1" style="rounded=0;whiteSpace=wrap;html=1;" vertex="1" parent="1">
          <mxGeometry x="240" y="360" width="80" height="40" as="geometry" />
        </mxCell>
        <mxCell id="cc8EIHfYlOQ8iBalrAjE-63" value="Kode Buku" style="rounded=0;whiteSpace=wrap;html=1;" vertex="1" parent="1">
          <mxGeometry x="560" y="320" width="80" height="40" as="geometry" />
        </mxCell>
        <mxCell id="cc8EIHfYlOQ8iBalrAjE-69" style="edgeStyle=orthogonalEdgeStyle;rounded=0;orthogonalLoop=1;jettySize=auto;html=1;entryX=0.5;entryY=0;entryDx=0;entryDy=0;" edge="1" parent="1" target="cc8EIHfYlOQ8iBalrAjE-57">
          <mxGeometry relative="1" as="geometry">
            <mxPoint x="450" y="230" as="targetPoint" />
            <mxPoint x="550" y="340" as="sourcePoint" />
            <Array as="points">
              <mxPoint x="440" y="340" />
              <mxPoint x="440" y="280" />
              <mxPoint x="200" y="280" />
            </Array>
          </mxGeometry>
        </mxCell>
        <mxCell id="cc8EIHfYlOQ8iBalrAjE-65" value="A-1" style="rounded=0;whiteSpace=wrap;html=1;" vertex="1" parent="1">
          <mxGeometry x="560" y="360" width="80" height="40" as="geometry" />
        </mxCell>
        <mxCell id="cc8EIHfYlOQ8iBalrAjE-68" value="A-2" style="rounded=0;whiteSpace=wrap;html=1;" vertex="1" parent="1">
          <mxGeometry x="560" y="400" width="80" height="40" as="geometry" />
        </mxCell>
      </root>
    </mxGraphModel>
  </diagram>
</mxfile>
